<?xml version="1.0" encoding="UTF-8"?>
<!DOCTYPE svg PUBLIC "-//W3C//DTD SVG 1.1//EN" "http://www.w3.org/Graphics/SVG/1.1/DTD/svg11.dtd">
<!-- Creator: CorelDRAW -->
<svg xmlns="http://www.w3.org/2000/svg" xml:space="preserve" width="514px" height="66px" version="1.1" style="shape-rendering:geometricPrecision; text-rendering:geometricPrecision; image-rendering:optimizeQuality; fill-rule:evenodd; clip-rule:evenodd"
viewBox="0 0 129.23 16.58"
 xmlns:xlink="http://www.w3.org/1999/xlink"
 xmlns:xodm="http://www.corel.com/coreldraw/odm/2003">
 <defs>
  <style type="text/css">
   <![CDATA[
    .fil0 {fill:#212121;fill-rule:nonzero}
   ]]>
  </style>
 </defs>
 <g id="Camada_x0020_1">
  <metadata id="CorelCorpID_0Corel-Layer"/>
  <g id="_2033387498992">
   <path class="fil0" d="M33.94 12.89c-3.42,0 -5.54,-1.67 -5.54,-4.6 0,-2.94 2.14,-4.6 5.54,-4.6 3.42,0 5.53,1.66 5.53,4.6 0,2.93 -2.11,4.6 -5.53,4.6zm0 -12.89c-6.16,0 -10.13,3.02 -10.13,8.29 0,5.26 3.97,8.29 10.13,8.29 6.15,0 10.15,-3.03 10.15,-8.29 0,-5.27 -4,-8.29 -10.15,-8.29z"/>
   <path class="fil0" d="M22.92 8.29c0,-4.89 -3.8,-7.78 -9.77,-7.78l-13.15 0 0 11.96 4.38 0 0 -8.36 8.41 0c3.33,0 5.51,1.42 5.51,4.18 0,2.75 -2.18,4.18 -5.51,4.18l-8.41 0 0 3.59 8.77 0c5.97,0 9.77,-2.88 9.77,-7.77z"/>
   <path class="fil0" d="M86.62 12.46l-10.51 0c-0.33,0 -1,-0.21 -1,-1 0,-0.6 0.49,-0.99 1,-0.99l10.51 0 0 1.99zm-1.08 -11.95l-9.31 0c-3.55,0 -5.28,2.32 -5.45,4.92l4.37 0c0.27,-0.98 0.59,-1.32 2.25,-1.32l7.39 0c1.24,0 1.83,0.53 1.83,1.84l0 0.92 -11.86 0c-2.61,0 -4.13,1.93 -4.13,4.5 0,2.54 1.47,4.69 4.2,4.69l16.16 0 0 -10.24c0,-2.64 -1.81,-5.31 -5.45,-5.31z"/>
   <path class="fil0" d="M68.72 0.51l-3.26 0 -7.7 7.03c-0.23,0.21 -0.57,0.21 -0.8,0l-7.69 -7.03 -3.26 0 0 15.55 4.37 0 0 -8.29 4.62 4.21c1.34,1.22 3.39,1.22 4.73,0l8.99 -8.21 0 -3.26z"/>
   <polygon class="fil0" points="68.72,12.46 64.34,12.46 64.34,16.06 68.72,16.06 "/>
  </g>
  <path class="fil0" d="M99.06 15.99c0.12,0 0.19,-0.08 0.24,-0.2l1.97 -5.03c0.05,-0.12 0,-0.19 -0.12,-0.19l-0.73 0c-0.12,0 -0.19,0.07 -0.24,0.19l-1.39 3.72 -0.04 0 -1.39 -3.72c-0.05,-0.12 -0.12,-0.19 -0.23,-0.19l-0.74 0c-0.11,0 -0.16,0.07 -0.11,0.19l1.97 5.03c0.05,0.12 0.12,0.2 0.23,0.2l0.58 0zm6.05 -0.2c0.04,0.12 0.12,0.2 0.23,0.2l0.74 0c0.11,0 0.16,-0.08 0.11,-0.2l-1.93 -5.03c-0.05,-0.12 -0.12,-0.19 -0.23,-0.19l-0.85 0c-0.12,0 -0.19,0.07 -0.24,0.19l-1.93 5.03c-0.05,0.12 0,0.2 0.11,0.2l0.74 0c0.11,0 0.19,-0.08 0.23,-0.2l0.39 -1.08 2.24 0 0.39 1.08zm-2.32 -1.97l0.8 -2.13 0.03 0 0.79 2.13 -1.62 0zm4.51 1.97c0,0.12 0.08,0.2 0.19,0.2l0.58 0c0.12,0 0.2,-0.08 0.2,-0.2l0 -1.58 1.66 0 0.85 1.58c0.07,0.12 0.16,0.2 0.31,0.2l0.66 0c0.16,0 0.16,-0.12 0.12,-0.2l-0.93 -1.66c0,0 0.85,-0.16 0.85,-1.32l0 -0.85c0,-0.93 -0.46,-1.39 -1.39,-1.39l-2.91 0c-0.11,0 -0.19,0.07 -0.19,0.19l0 5.03zm2.98 -4.33c0.35,0 0.54,0.19 0.54,0.54l0 0.77c0,0.35 -0.19,0.54 -0.54,0.54l-2.01 0 0 -1.85 2.01 0zm4.05 0l3.1 0c0.11,0 0.19,-0.08 0.19,-0.2l0 -0.5c0,-0.12 -0.08,-0.19 -0.19,-0.19l-3.87 0c-0.12,0 -0.2,0.07 -0.2,0.19l0 5.03c0,0.12 0.08,0.2 0.2,0.2l3.94 0c0.12,0 0.2,-0.08 0.2,-0.2l0 -0.5c0,-0.12 -0.08,-0.2 -0.2,-0.2l-3.17 0 0 -1.43 2.4 0c0.12,0 0.19,-0.08 0.19,-0.19l0 -0.5c0,-0.12 -0.07,-0.2 -0.19,-0.2l-2.4 0 0 -1.31zm7.43 3.17c0,0.35 -0.19,0.54 -0.54,0.54l-1.24 0c-0.35,0 -0.54,-0.19 -0.54,-0.54l0 -0.39c0,-0.11 -0.08,-0.19 -0.19,-0.19l-0.58 0c-0.12,0 -0.2,0.08 -0.2,0.19l0 0.43c0,0.93 0.47,1.39 1.4,1.39l1.47 0c0.93,0 1.39,-0.46 1.39,-1.39l0 -3.91c0,-0.12 -0.08,-0.19 -0.19,-0.19l-0.58 0c-0.12,0 -0.2,0.07 -0.2,0.19l0 3.87zm6.08 1.43c0.93,0 1.4,-0.46 1.4,-1.39l0 -2.79c0,-0.93 -0.47,-1.39 -1.4,-1.39l-2.09 0c-0.93,0 -1.39,0.46 -1.39,1.39l0 2.79c0,0.93 0.46,1.39 1.39,1.39l2.09 0zm-1.97 -0.89c-0.35,0 -0.55,-0.19 -0.55,-0.54l0 -2.71c0,-0.35 0.2,-0.54 0.55,-0.54l1.86 0c0.34,0 0.54,0.19 0.54,0.54l0 2.71c0,0.35 -0.2,0.54 -0.54,0.54l-1.86 0z"/>
 </g>
</svg>
