<?xml version="1.0" encoding="UTF-8"?>
<!DOCTYPE svg PUBLIC "-//W3C//DTD SVG 1.1//EN" "http://www.w3.org/Graphics/SVG/1.1/DTD/svg11.dtd">
<!-- Creator: CorelDRAW -->
<svg xmlns="http://www.w3.org/2000/svg" xml:space="preserve" width="452px" height="66px" version="1.1" style="shape-rendering:geometricPrecision; text-rendering:geometricPrecision; image-rendering:optimizeQuality; fill-rule:evenodd; clip-rule:evenodd"
viewBox="0 0 99.84 14.58"
 xmlns:xlink="http://www.w3.org/1999/xlink"
 xmlns:xodm="http://www.corel.com/coreldraw/odm/2003">
 <defs>
  <style type="text/css">
   <![CDATA[
    .fil0 {fill:#212121;fill-rule:nonzero}
   ]]>
  </style>
 </defs>
 <g id="Camada_x0020_1">
  <metadata id="CorelCorpID_0Corel-Layer"/>
  <g id="_1997273087584">
   <path class="fil0" d="M29.84 11.33c-3,0 -4.86,-1.46 -4.86,-4.04 0,-2.58 1.87,-4.05 4.86,-4.05 3.01,0 4.87,1.47 4.87,4.05 0,2.58 -1.86,4.04 -4.87,4.04zm0 -11.33c-5.41,0 -8.91,2.66 -8.91,7.29 0,4.63 3.5,7.29 8.91,7.29 5.42,0 8.93,-2.66 8.93,-7.29 0,-4.63 -3.51,-7.29 -8.93,-7.29z"/>
   <path class="fil0" d="M20.16 7.29c0,-4.3 -3.34,-6.84 -8.6,-6.84l-11.56 0 0 10.51 3.85 0 0 -7.35 7.4 0c2.93,0 4.84,1.26 4.84,3.68 0,2.42 -1.91,3.67 -4.84,3.67l-7.4 0 0 3.17 7.71 0c5.26,0 8.6,-2.54 8.6,-6.84z"/>
   <path class="fil0" d="M76.17 10.96l-9.24 0c-0.29,0 -0.88,-0.18 -0.88,-0.88 0,-0.53 0.43,-0.87 0.88,-0.87l9.24 0 0 1.75zm-0.95 -10.51l-8.19 0c-3.11,0 -4.64,2.04 -4.79,4.32l3.84 0c0.24,-0.86 0.52,-1.16 1.98,-1.16l6.5 0c1.09,0 1.61,0.47 1.61,1.62l0 0.81 -10.43 0c-2.3,0 -3.63,1.7 -3.63,3.96 0,2.23 1.29,4.13 3.7,4.13l14.21 0 0 -9.01c0,-2.33 -1.59,-4.67 -4.8,-4.67z"/>
   <path class="fil0" d="M60.43 0.45l-2.87 0 -6.77 6.18c-0.2,0.19 -0.5,0.19 -0.7,0l-6.77 -6.18 -2.86 0 0 13.68 3.85 0 0 -7.3 4.05 3.7c1.18,1.08 2.98,1.08 4.16,0l7.91 -7.21 0 -2.87z"/>
   <polygon class="fil0" points="60.43,10.96 56.58,10.96 56.58,14.13 60.43,14.13 "/>
  </g>
  <path class="fil0" d="M84.64 13.95c0,0.11 0.07,0.18 0.17,0.18l0.53 0c0.1,0 0.17,-0.07 0.17,-0.18l0 -1.3 1.96 0c0.85,0 1.26,-0.42 1.26,-1.26l0 -0.91c0,-0.84 -0.41,-1.26 -1.26,-1.26l-2.66 0c-0.1,0 -0.17,0.07 -0.17,0.18l0 4.55zm2.73 -3.92c0.31,0 0.49,0.17 0.49,0.49l0 0.84c0,0.31 -0.18,0.49 -0.49,0.49l-1.86 0 0 -1.82 1.86 0zm5.75 4.1c0.84,0 1.26,-0.42 1.26,-1.27l0 -2.38c0,-0.84 -0.42,-1.26 -1.26,-1.26l-2.88 0c-0.1,0 -0.17,0.07 -0.17,0.18l0 4.55c0,0.11 0.07,0.18 0.17,0.18l2.88 0zm-2.18 -4.1l2.07 0c0.32,0 0.49,0.17 0.49,0.49l0 2.31c0,0.32 -0.17,0.49 -0.49,0.49l-2.07 0 0 -3.29zm6.89 4.1c0.11,0 0.17,-0.07 0.21,-0.18l1.79 -4.55c0.04,-0.11 0,-0.18 -0.11,-0.18l-0.66 0c-0.11,0 -0.17,0.07 -0.21,0.18l-1.27 3.36 -0.03 0 -1.26 -3.36c-0.04,-0.11 -0.11,-0.18 -0.21,-0.18l-0.67 0c-0.1,0 -0.14,0.07 -0.1,0.18l1.78 4.55c0.05,0.11 0.11,0.18 0.21,0.18l0.53 0z"/>
 </g>
</svg>
