<?xml version="1.0" encoding="UTF-8"?>
<!DOCTYPE svg PUBLIC "-//W3C//DTD SVG 1.1//EN" "http://www.w3.org/Graphics/SVG/1.1/DTD/svg11.dtd">
<!-- Creator: CorelDRAW -->
<svg xmlns="http://www.w3.org/2000/svg" xml:space="preserve" width="499px" height="66px" version="1.1" style="shape-rendering:geometricPrecision; text-rendering:geometricPrecision; image-rendering:optimizeQuality; fill-rule:evenodd; clip-rule:evenodd"
viewBox="0 0 121.88 16.09"
 xmlns:xlink="http://www.w3.org/1999/xlink"
 xmlns:xodm="http://www.corel.com/coreldraw/odm/2003">
 <defs>
  <style type="text/css">
   <![CDATA[
    .fil0 {fill:#212121;fill-rule:nonzero}
   ]]>
  </style>
 </defs>
 <g id="Camada_x0020_1">
  <metadata id="CorelCorpID_0Corel-Layer"/>
  <g id="_2033391165584">
   <path class="fil0" d="M32.95 12.51c-3.32,0 -5.37,-1.62 -5.37,-4.46 0,-2.85 2.07,-4.47 5.37,-4.47 3.32,0 5.37,1.62 5.37,4.47 0,2.84 -2.05,4.46 -5.37,4.46zm0 -12.51c-5.98,0 -9.84,2.93 -9.84,8.05 0,5.11 3.86,8.04 9.84,8.04 5.97,0 9.85,-2.93 9.85,-8.04 0,-5.12 -3.88,-8.05 -9.85,-8.05z"/>
   <path class="fil0" d="M22.25 8.05c0,-4.75 -3.69,-7.55 -9.49,-7.55l-12.76 0 0 11.6 4.25 0 0 -8.11 8.17 0c3.23,0 5.35,1.38 5.35,4.06 0,2.67 -2.12,4.05 -5.35,4.05l-8.17 0 0 3.5 8.51 0c5.8,0 9.49,-2.81 9.49,-7.55z"/>
   <path class="fil0" d="M84.09 12.1l-10.2 0c-0.32,0 -0.98,-0.2 -0.98,-0.97 0,-0.59 0.49,-0.97 0.98,-0.97l10.2 0 0 1.94zm-1.05 -11.6l-9.04 0c-3.44,0 -5.12,2.25 -5.29,4.77l4.25 0c0.26,-0.95 0.57,-1.28 2.18,-1.28l7.18 0c1.2,0 1.77,0.52 1.77,1.79l0 0.89 -11.51 0c-2.54,0 -4.01,1.87 -4.01,4.37 0,2.47 1.42,4.56 4.08,4.56l15.69 0 0 -9.95c0,-2.57 -1.76,-5.15 -5.3,-5.15z"/>
   <path class="fil0" d="M66.71 0.5l-3.17 0 -7.47 6.82c-0.21,0.2 -0.55,0.2 -0.77,0l-7.47 -6.82 -3.17 0 0 15.1 4.25 0 0 -8.06 4.48 4.09c1.3,1.19 3.29,1.19 4.59,0l8.73 -7.97 0 -3.16z"/>
   <polygon class="fil0" points="66.71,12.1 62.46,12.1 62.46,15.6 66.71,15.6 "/>
  </g>
  <path class="fil0" d="M96.2 11.05l1.59 0c0.11,0 0.19,-0.08 0.19,-0.19l0 -0.51c0,-0.11 -0.08,-0.19 -0.19,-0.19l-4.16 0c-0.11,0 -0.19,0.08 -0.19,0.19l0 0.51c0,0.11 0.08,0.19 0.19,0.19l1.59 0 0 4.35c0,0.12 0.08,0.2 0.2,0.2l0.58 0c0.12,0 0.2,-0.08 0.2,-0.2l0 -4.35zm3.84 0l3.11 0c0.11,0 0.19,-0.08 0.19,-0.19l0 -0.51c0,-0.11 -0.08,-0.19 -0.19,-0.19l-3.89 0c-0.11,0 -0.19,0.08 -0.19,0.19l0 5.05c0,0.12 0.08,0.2 0.19,0.2l3.96 0c0.12,0 0.2,-0.08 0.2,-0.2l0 -0.5c0,-0.12 -0.08,-0.2 -0.2,-0.2l-3.18 0 0 -1.43 2.41 0c0.11,0 0.19,-0.08 0.19,-0.2l0 -0.5c0,-0.12 -0.08,-0.2 -0.19,-0.2l-2.41 0 0 -1.32zm1.01 -2.79c-0.16,0 -0.22,0.08 -0.31,0.19l-0.74 0.97c-0.09,0.12 0,0.2 0.12,0.2l0.42 0c0.12,0 0.2,-0.08 0.27,-0.2l0.43 -0.58 0.04 0 0.43 0.58c0.07,0.12 0.15,0.2 0.27,0.2l0.43 0c0.11,0 0.2,-0.08 0.11,-0.2l-0.74 -0.97c-0.09,-0.11 -0.15,-0.19 -0.31,-0.19l-0.42 0zm4.81 4.46l-1.79 2.68c-0.05,0.08 -0.04,0.2 0.11,0.2l0.7 0c0.16,0 0.24,-0.08 0.31,-0.2l1.29 -1.9 1.28 1.9c0.07,0.12 0.15,0.2 0.31,0.2l0.7 0c0.15,0 0.16,-0.12 0.11,-0.2l-1.78 -2.68 1.59 -2.37c0.05,-0.08 0.04,-0.19 -0.12,-0.19l-0.7 0c-0.15,0 -0.23,0.08 -0.31,0.19l-1.08 1.6 -1.09 -1.6c-0.08,-0.11 -0.16,-0.19 -0.31,-0.19l-0.7 0c-0.16,0 -0.16,0.11 -0.12,0.19l1.6 2.37zm6.28 -1.67l1.59 0c0.12,0 0.19,-0.08 0.19,-0.19l0 -0.51c0,-0.11 -0.07,-0.19 -0.19,-0.19l-4.16 0c-0.11,0 -0.19,0.08 -0.19,0.19l0 0.51c0,0.11 0.08,0.19 0.19,0.19l1.6 0 0 4.35c0,0.12 0.07,0.2 0.19,0.2l0.58 0c0.12,0 0.2,-0.08 0.2,-0.2l0 -4.35zm2.87 4.35c0,0.12 0.08,0.2 0.2,0.2l0.58 0c0.11,0 0.19,-0.08 0.19,-0.2l0 -5.05c0,-0.11 -0.08,-0.19 -0.19,-0.19l-0.58 0c-0.12,0 -0.2,0.08 -0.2,0.19l0 5.05zm3.65 -5.05c0,-0.11 -0.08,-0.19 -0.19,-0.19l-0.59 0c-0.11,0 -0.19,0.08 -0.19,0.19l0 5.05c0,0.12 0.08,0.2 0.19,0.2l3.81 0c0.11,0 0.19,-0.08 0.19,-0.2l0 -0.5c0,-0.12 -0.08,-0.2 -0.19,-0.2l-3.03 0 0 -4.35z"/>
 </g>
</svg>
