<?xml version="1.0" encoding="UTF-8"?>
<!DOCTYPE svg PUBLIC "-//W3C//DTD SVG 1.1//EN" "http://www.w3.org/Graphics/SVG/1.1/DTD/svg11.dtd">
<!-- Creator: CorelDRAW -->
<svg xmlns="http://www.w3.org/2000/svg" xml:space="preserve" width="571px" height="66px" version="1.1" style="shape-rendering:geometricPrecision; text-rendering:geometricPrecision; image-rendering:optimizeQuality; fill-rule:evenodd; clip-rule:evenodd"
viewBox="0 0 159.44 18.41"
 xmlns:xlink="http://www.w3.org/1999/xlink"
 xmlns:xodm="http://www.corel.com/coreldraw/odm/2003">
 <defs>
  <style type="text/css">
   <![CDATA[
    .fil0 {fill:#212121;fill-rule:nonzero}
   ]]>
  </style>
 </defs>
 <g id="Camada_x0020_1">
  <metadata id="CorelCorpID_0Corel-Layer"/>
  <path class="fil0" d="M37.7 14.32c-3.8,0 -6.15,-1.85 -6.15,-5.11 0,-3.26 2.37,-5.11 6.15,-5.11 3.8,0 6.15,1.85 6.15,5.11 0,3.26 -2.35,5.11 -6.15,5.11zm0 -14.32c-6.84,0 -11.25,3.36 -11.25,9.21 0,5.85 4.41,9.2 11.25,9.2 6.84,0 11.28,-3.35 11.28,-9.2 0,-5.85 -4.44,-9.21 -11.28,-9.21z"/>
  <path class="fil0" d="M25.46 9.21c0,-5.43 -4.22,-8.64 -10.86,-8.64l-14.6 0 0 13.28 4.86 0 0 -9.28 9.35 0c3.7,0 6.12,1.58 6.12,4.64 0,3.06 -2.42,4.64 -6.12,4.64l-9.35 0 0 4 9.74 0c6.64,0 10.86,-3.21 10.86,-8.64z"/>
  <path class="fil0" d="M96.22 13.85l-11.66 0c-0.37,0 -1.13,-0.24 -1.13,-1.12 0,-0.67 0.56,-1.1 1.13,-1.1l11.66 0 0 2.22zm-1.19 -13.28l-10.35 0c-3.94,0 -5.86,2.58 -6.06,5.46l4.86 0c0.3,-1.09 0.66,-1.46 2.5,-1.46l8.21 0c1.38,0 2.03,0.59 2.03,2.04l0 1.02 -13.17 0c-2.9,0 -4.59,2.15 -4.59,5 0,2.82 1.63,5.22 4.67,5.22l17.95 0 0 -11.39c0,-2.93 -2.01,-5.89 -6.05,-5.89z"/>
  <path class="fil0" d="M76.34 0.57l-3.63 0 -8.54 7.81c-0.26,0.23 -0.64,0.23 -0.89,0l-8.55 -7.81 -3.62 0 0 17.28 4.86 0 0 -9.22 5.12 4.68c1.49,1.35 3.77,1.35 5.26,0l9.99 -9.12 0 -3.62z"/>
  <polygon class="fil0" points="76.34,13.85 71.47,13.85 71.47,17.85 76.34,17.85 "/>
  <path class="fil0" d="M106.92 17.54c0,0.13 0.09,0.22 0.22,0.22l0.66 0c0.13,0 0.22,-0.09 0.22,-0.22l0 -5.75c0,-0.14 -0.09,-0.22 -0.22,-0.22l-0.66 0c-0.13,0 -0.22,0.08 -0.22,0.22l0 5.75zm7.3 -1.46l-2.79 -4.29c-0.09,-0.14 -0.18,-0.22 -0.36,-0.22l-0.88 0c-0.13,0 -0.22,0.08 -0.22,0.22l0 5.75c0,0.13 0.09,0.22 0.22,0.22l0.66 0c0.14,0 0.22,-0.09 0.22,-0.22l0 -4.29 0.05 0 2.78 4.29c0.1,0.13 0.18,0.22 0.36,0.22l0.88 0c0.14,0 0.22,-0.09 0.22,-0.22l0 -5.75c0,-0.14 -0.08,-0.22 -0.22,-0.22l-0.66 0c-0.13,0 -0.22,0.08 -0.22,0.22l0 4.29 -0.04 0zm6.94 1.68c1.06,0 1.59,-0.53 1.59,-1.59l0 -3.01c0,-1.06 -0.53,-1.59 -1.59,-1.59l-3.63 0c-0.13,0 -0.22,0.08 -0.22,0.22l0 5.75c0,0.13 0.09,0.22 0.22,0.22l3.63 0zm-2.74 -5.18l2.61 0c0.4,0 0.62,0.22 0.62,0.62l0 2.92c0,0.4 -0.22,0.62 -0.62,0.62l-2.61 0 0 -4.16zm11.54 -0.79c0,-0.14 -0.09,-0.22 -0.22,-0.22l-0.66 0c-0.14,0 -0.23,0.08 -0.23,0.22l0 4.42c0,0.4 -0.22,0.62 -0.61,0.62l-1.91 0c-0.39,0 -0.62,-0.22 -0.62,-0.62l0 -4.42c0,-0.14 -0.08,-0.22 -0.22,-0.22l-0.66 0c-0.13,0 -0.22,0.08 -0.22,0.22l0 4.46c0,1.07 0.53,1.6 1.59,1.6l2.17 0c1.06,0 1.59,-0.53 1.59,-1.6l0 -4.46zm-1.42 -2.13c0.09,-0.13 0,-0.22 -0.13,-0.22l-0.66 0c-0.13,0 -0.21,0.09 -0.27,0.22l-0.44 1.06c-0.05,0.14 0,0.23 0.13,0.23l0.4 0c0.13,0 0.22,-0.09 0.31,-0.23l0.66 -1.06zm8.27 6.15c0,-0.66 -0.39,-1.05 -0.97,-1.24l-2.52 -0.79c-0.26,-0.09 -0.44,-0.27 -0.44,-0.53l0 -0.14c0,-0.39 0.22,-0.62 0.62,-0.62l1.5 0c0.4,0 0.62,0.23 0.62,0.62l0 0.27c0,0.13 0.09,0.22 0.22,0.22l0.67 0c0.13,0 0.22,-0.09 0.22,-0.22l0 -0.31c0,-1.06 -0.54,-1.59 -1.6,-1.59l-1.76 0c-1.07,0 -1.6,0.53 -1.6,1.59l0 0.35c0,0.67 0.4,1.07 0.98,1.24l2.52 0.8c0.26,0.08 0.44,0.26 0.44,0.53l0 0.22c0,0.4 -0.22,0.62 -0.62,0.62l-1.72 0c-0.4,0 -0.62,-0.22 -0.62,-0.62l0 -0.27c0,-0.13 -0.09,-0.22 -0.23,-0.22l-0.66 0c-0.13,0 -0.22,0.09 -0.22,0.22l0 0.31c0,1.07 0.53,1.6 1.59,1.6l1.99 0c1.06,0 1.59,-0.53 1.59,-1.6l0 -0.44zm4.12 -3.23l1.81 0c0.13,0 0.22,-0.09 0.22,-0.22l0 -0.57c0,-0.14 -0.09,-0.22 -0.22,-0.22l-4.73 0c-0.13,0 -0.22,0.08 -0.22,0.22l0 0.57c0,0.13 0.09,0.22 0.22,0.22l1.81 0 0 4.96c0,0.13 0.09,0.22 0.22,0.22l0.67 0c0.13,0 0.22,-0.09 0.22,-0.22l0 -4.96zm3.27 4.96c0,0.13 0.09,0.22 0.22,0.22l0.66 0c0.14,0 0.22,-0.09 0.22,-0.22l0 -1.82 1.91 0 0.97 1.82c0.07,0.13 0.18,0.22 0.35,0.22l0.76 0c0.17,0 0.17,-0.13 0.13,-0.22l-1.06 -1.91c0,0 0.97,-0.17 0.97,-1.5l0 -0.97c0,-1.06 -0.53,-1.59 -1.59,-1.59l-3.32 0c-0.13,0 -0.22,0.08 -0.22,0.22l0 5.75zm3.41 -4.96c0.39,0 0.62,0.22 0.62,0.62l0 0.89c0,0.4 -0.23,0.62 -0.62,0.62l-2.31 0 0 -2.13 2.31 0zm3.52 4.96c0,0.13 0.08,0.22 0.22,0.22l0.66 0c0.13,0 0.22,-0.09 0.22,-0.22l0 -5.75c0,-0.14 -0.09,-0.22 -0.22,-0.22l-0.66 0c-0.14,0 -0.22,0.08 -0.22,0.22l0 5.75zm7.06 0c0.04,0.13 0.13,0.22 0.26,0.22l0.84 0c0.13,0 0.19,-0.09 0.13,-0.22l-2.21 -5.75c-0.05,-0.14 -0.13,-0.22 -0.26,-0.22l-0.98 0c-0.13,0 -0.21,0.08 -0.26,0.22l-2.21 5.75c-0.06,0.13 0,0.22 0.13,0.22l0.84 0c0.13,0 0.22,-0.09 0.27,-0.22l0.44 -1.24 2.56 0 0.45 1.24zm-2.66 -2.26l0.91 -2.43 0.04 0 0.91 2.43 -1.86 0z"/>
 </g>
</svg>
