<?xml version="1.0" encoding="UTF-8"?>
<!DOCTYPE svg PUBLIC "-//W3C//DTD SVG 1.1//EN" "http://www.w3.org/Graphics/SVG/1.1/DTD/svg11.dtd">
<!-- Creator: CorelDRAW -->
<svg xmlns="http://www.w3.org/2000/svg" xml:space="preserve" width="484px" height="66px" version="1.1" style="shape-rendering:geometricPrecision; text-rendering:geometricPrecision; image-rendering:optimizeQuality; fill-rule:evenodd; clip-rule:evenodd"
viewBox="0 0 114.52 15.61"
 xmlns:xlink="http://www.w3.org/1999/xlink"
 xmlns:xodm="http://www.corel.com/coreldraw/odm/2003">
 <defs>
  <style type="text/css">
   <![CDATA[
    .fil0 {fill:#212121;fill-rule:nonzero}
   ]]>
  </style>
 </defs>
 <g id="Camada_x0020_1">
  <metadata id="CorelCorpID_0Corel-Layer"/>
  <g id="_2033389650992">
   <path class="fil0" d="M31.96 12.13c-3.22,0 -5.21,-1.56 -5.21,-4.33 0,-2.76 2.01,-4.33 5.21,-4.33 3.22,0 5.21,1.57 5.21,4.33 0,2.77 -1.99,4.33 -5.21,4.33zm0 -12.13c-5.8,0 -9.54,2.85 -9.54,7.8 0,4.96 3.74,7.81 9.54,7.81 5.79,0 9.56,-2.85 9.56,-7.81 0,-4.95 -3.77,-7.8 -9.56,-7.8z"/>
   <path class="fil0" d="M21.58 7.8c0,-4.6 -3.57,-7.32 -9.2,-7.32l-12.38 0 0 11.26 4.12 0 0 -7.87 7.92 0c3.14,0 5.19,1.34 5.19,3.93 0,2.6 -2.05,3.94 -5.19,3.94l-7.92 0 0 3.39 8.26 0c5.63,0 9.2,-2.72 9.2,-7.33z"/>
   <path class="fil0" d="M81.56 11.74l-9.89 0c-0.31,0 -0.95,-0.2 -0.95,-0.95 0,-0.56 0.47,-0.93 0.95,-0.93l9.89 0 0 1.88zm-1.01 -11.26l-8.77 0c-3.34,0 -4.97,2.19 -5.14,4.63l4.12 0c0.26,-0.92 0.56,-1.24 2.12,-1.24l6.96 0c1.16,0 1.72,0.5 1.72,1.73l0 0.87 -11.16 0c-2.47,0 -3.89,1.82 -3.89,4.24 0,2.39 1.38,4.42 3.96,4.42l15.21 0 0 -9.65c0,-2.49 -1.7,-5 -5.13,-5z"/>
   <path class="fil0" d="M64.7 0.48l-3.07 0 -7.24 6.62c-0.21,0.2 -0.54,0.2 -0.75,0l-7.25 -6.62 -3.07 0 0 14.65 4.12 0 0 -7.82 4.35 3.97c1.26,1.15 3.19,1.15 4.45,0l8.46 -7.73 0 -3.07z"/>
   <polygon class="fil0" points="64.7,11.74 60.58,11.74 60.58,15.13 64.7,15.13 "/>
  </g>
  <path class="fil0" d="M93.76 15.05c0.15,0 0.21,-0.07 0.26,-0.18l1.53 -3.28 0.04 0 0 3.28c0,0.11 0.07,0.18 0.18,0.18l0.55 0c0.11,0 0.18,-0.07 0.18,-0.18l0 -4.74c0,-0.11 -0.07,-0.18 -0.18,-0.18l-0.77 0c-0.15,0 -0.2,0.07 -0.26,0.18l-1.71 3.65 -0.03 0 -1.72 -3.65c-0.05,-0.11 -0.11,-0.18 -0.25,-0.18l-0.77 0c-0.11,0 -0.18,0.07 -0.18,0.18l0 4.74c0,0.11 0.07,0.18 0.18,0.18l0.55 0c0.11,0 0.18,-0.07 0.18,-0.18l0 -3.28 0.04 0 1.53 3.28c0.05,0.11 0.11,0.18 0.25,0.18l0.4 0zm7.55 0.08c0.88,0 1.32,-0.44 1.32,-1.32l0 -2.62c0,-0.88 -0.44,-1.32 -1.32,-1.32l-1.97 0c-0.87,0 -1.31,0.44 -1.31,1.32l0 2.62c0,0.88 0.44,1.32 1.31,1.32l1.97 0zm-1.86 -0.84c-0.33,0 -0.51,-0.18 -0.51,-0.51l0 -2.56c0,-0.32 0.18,-0.51 0.51,-0.51l1.75 0c0.33,0 0.51,0.19 0.51,0.51l0 2.56c0,0.33 -0.18,0.51 -0.51,0.51l-1.75 0zm7.88 0.76c0.87,0 1.31,-0.43 1.31,-1.31l0 -2.48c0,-0.87 -0.44,-1.31 -1.31,-1.31l-2.99 0c-0.11,0 -0.18,0.07 -0.18,0.18l0 4.74c0,0.11 0.07,0.18 0.18,0.18l2.99 0zm-2.26 -4.26l2.15 0c0.33,0 0.51,0.18 0.51,0.51l0 2.4c0,0.33 -0.18,0.51 -0.51,0.51l-2.15 0 0 -3.42zm8.41 4.08c0.03,0.11 0.11,0.18 0.22,0.18l0.69 0c0.11,0 0.15,-0.07 0.11,-0.18l-1.82 -4.74c-0.05,-0.11 -0.11,-0.18 -0.22,-0.18l-0.8 0c-0.11,0 -0.18,0.07 -0.22,0.18l-1.83 4.74c-0.04,0.11 0,0.18 0.11,0.18l0.7 0c0.11,0 0.18,-0.07 0.21,-0.18l0.37 -1.02 2.11 0 0.37 1.02zm-2.19 -1.86l0.75 -2 0.03 0 0.75 2 -1.53 0z"/>
 </g>
</svg>
